<svg width="21" height="27" viewBox="0 0 21 27" fill="none" xmlns="http://www.w3.org/2000/svg">
<path fill-rule="evenodd" clip-rule="evenodd" d="M17.5772 17.832C19.6805 15.9566 21 13.2567 21 10.2558C21 4.59168 16.299 0 10.5 0C4.70101 0 0 4.59168 0 10.2558C0 13.3724 1.42328 16.1643 3.6696 18.0453L10.7598 26.3709L17.5772 17.832Z" fill="#B02304"/>
<g clip-path="url(#clip0_101_603)">
<path d="M11.214 5.1479L15.9577 13.3639C16.03 13.4892 16.0681 13.6313 16.0681 13.776C16.0681 13.9206 16.03 14.0627 15.9577 14.188C15.8853 14.3133 15.7813 14.4173 15.656 14.4897C15.5307 14.562 15.3886 14.6001 15.244 14.6001H5.7566C5.61194 14.6001 5.46983 14.562 5.34455 14.4897C5.21927 14.4173 5.11523 14.3133 5.0429 14.188C4.97057 14.0627 4.93249 13.9206 4.9325 13.776C4.9325 13.6313 4.97058 13.4892 5.04291 13.3639L9.78659 5.1479C10.1036 4.59849 10.8964 4.59849 11.214 5.1479ZM10.5003 11.6596C10.3546 11.6596 10.2148 11.7175 10.1118 11.8205C10.0087 11.9236 9.95086 12.0633 9.95086 12.209C9.95086 12.3547 10.0087 12.4945 10.1118 12.5975C10.2148 12.7006 10.3546 12.7584 10.5003 12.7584C10.646 12.7584 10.7857 12.7006 10.8888 12.5975C10.9918 12.4945 11.0497 12.3547 11.0497 12.209C11.0497 12.0633 10.9918 11.9236 10.8888 11.8205C10.7857 11.7175 10.646 11.6596 10.5003 11.6596ZM10.5003 7.81368C10.3657 7.8137 10.2358 7.86311 10.1353 7.95253C10.0347 8.04195 9.97045 8.16517 9.95471 8.29882L9.95086 8.3631V10.5608C9.95102 10.7008 10.0046 10.8355 10.1008 10.9373C10.1969 11.0392 10.3283 11.1004 10.4681 11.1086C10.6079 11.1168 10.7455 11.0714 10.8529 10.9815C10.9603 10.8916 11.0293 10.7641 11.0459 10.6251L11.0497 10.5608V8.3631C11.0497 8.21739 10.9918 8.07764 10.8888 7.9746C10.7857 7.87157 10.646 7.81368 10.5003 7.81368Z" fill="white"/>
</g>
<defs>
<clipPath id="clip0_101_603">
<rect width="13.186" height="13.186" fill="white" transform="translate(3.90723 3.41846)"/>
</clipPath>
</defs>
</svg>
