<svg width="25" height="25" viewBox="0 0 25 25" fill="none" xmlns="http://www.w3.org/2000/svg">
<path fill-rule="evenodd" clip-rule="evenodd" d="M6.25 4C5.65326 4 5.08097 4.23705 4.65901 4.65901C4.23705 5.08097 4 5.65326 4 6.25V17.5675L5.44 16.1275L7.16125 14.4062H8.5V16.375C8.5 16.9717 8.73705 17.544 9.15901 17.966C9.58097 18.3879 10.1533 18.625 10.75 18.625H18.625L20.3125 20.3125L22 22V10.75C22 10.1533 21.7629 9.58097 21.341 9.15901C20.919 8.73705 20.3467 8.5 19.75 8.5H17.5V6.25C17.5 5.65326 17.2629 5.08097 16.841 4.65901C16.419 4.23705 15.8467 4 15.25 4H6.25ZM15.8125 8.5V6.25C15.8125 6.10082 15.7532 5.95774 15.6477 5.85225C15.5423 5.74676 15.3992 5.6875 15.25 5.6875H6.25C6.10082 5.6875 5.95774 5.74676 5.85225 5.85225C5.74676 5.95774 5.6875 6.10082 5.6875 6.25V13.495L6.21625 12.9662L6.46375 12.7188H8.5V10.75C8.5 10.1533 8.73705 9.58097 9.15901 9.15901C9.58097 8.73705 10.1533 8.5 10.75 8.5H15.8125ZM19.8175 17.4325L20.3125 17.9264V10.75C20.3125 10.6008 20.2532 10.4577 20.1477 10.3523C20.0423 10.2468 19.8992 10.1875 19.75 10.1875H10.75C10.6008 10.1875 10.4577 10.2468 10.3523 10.3523C10.2468 10.4577 10.1875 10.6008 10.1875 10.75V16.375C10.1875 16.5242 10.2468 16.6673 10.3523 16.7727C10.4577 16.8782 10.6008 16.9375 10.75 16.9375H19.3236L19.8175 17.4325Z" fill="#9E9E9E"/>
</svg>
