<svg width="18" height="18" viewBox="0 0 18 18" fill="none" xmlns="http://www.w3.org/2000/svg">
<path d="M6.28913 10.7144L7.02666 10.8369C7.04447 10.7299 7.03873 10.6202 7.00986 10.5156C6.981 10.4109 6.92968 10.3138 6.85949 10.231C6.7893 10.1482 6.70192 10.0817 6.60343 10.0361C6.50493 9.99045 6.39768 9.96683 6.28913 9.96685V10.7144ZM17.2525 10.7144V11.4619C17.4507 11.4619 17.6409 11.3831 17.7811 11.2429C17.9212 11.1027 18 10.9126 18 10.7144H17.2525ZM15.2592 0.000148773H3.93699V1.49515H15.2592V0.000148773ZM2.74098 11.4619H6.28913V9.96685H2.74098V11.4619ZM5.55159 10.5918L4.74828 15.4107L6.22335 15.6568L7.02666 10.8369L5.55159 10.5918ZM6.46853 17.4419H6.68182V15.9469H6.46952L6.46853 17.4419ZM9.79242 15.7774L12.299 12.017L11.0552 11.1878L8.54858 14.9482L9.79242 15.7774ZM13.3356 11.4619H17.2525V9.96685H13.3356V11.4619ZM18 10.7144V2.74099H16.505V10.7144H18ZM1.24897 2.20279L0.0529633 8.18281L1.51807 8.47683L2.71407 2.49681L1.24897 2.20279ZM12.299 12.017C12.4128 11.8463 12.5669 11.7073 12.7477 11.6104C12.9285 11.5136 13.1305 11.4629 13.3356 11.4629V9.96785C12.4186 9.96785 11.5635 10.4253 11.0552 11.1878L12.299 12.017ZM4.74828 15.4107C4.70675 15.6605 4.72011 15.9173 4.78743 16.1614C4.85475 16.4055 4.97442 16.632 5.13812 16.8252C5.30182 17.0184 5.50563 17.1737 5.73538 17.2802C5.96512 17.3866 6.2153 17.4418 6.46853 17.4419L6.46952 15.9469C6.4334 15.9468 6.39673 15.9388 6.36397 15.9236C6.33122 15.9083 6.30218 15.8862 6.27886 15.8586C6.25553 15.831 6.23849 15.7986 6.2289 15.7638C6.21932 15.729 6.21742 15.6925 6.22335 15.6568L4.74828 15.4107ZM2.74098 9.96785C1.95361 9.96785 1.36558 9.24825 1.51907 8.47782L0.0529633 8.18381C-0.02635 8.58139 -0.0164776 8.9926 0.0818691 9.3859C0.180218 9.77921 0.364592 10.1458 0.621704 10.4592C0.878815 10.7727 1.20226 11.0252 1.56873 11.1986C1.9352 11.372 2.33557 11.4619 2.74098 11.4619V9.96785ZM3.93699 0.000148773C3.3034 2.47955e-05 2.68933 0.220411 2.19926 0.62199C1.70919 1.02357 1.37338 1.58253 1.24897 2.20379L2.71407 2.4978C2.77057 2.21515 2.92333 1.96083 3.14632 1.77818C3.36931 1.59554 3.64874 1.49487 3.93699 1.49515V0.000148773ZM6.68182 17.4419C7.29709 17.4418 7.90285 17.2909 8.4453 17.0005C8.98776 16.7102 9.45015 16.2904 9.79143 15.7784L8.54858 14.9482C8.34372 15.2555 8.06613 15.5085 7.74047 15.6827C7.4148 15.8569 7.05115 15.947 6.68182 15.9469V17.4419ZM15.2592 1.49515C15.9469 1.49515 16.505 2.05329 16.505 2.74099H18C18 2.01408 17.7112 1.31693 17.1972 0.802923C16.6832 0.288916 15.9861 0.000148773 15.2592 0.000148773V1.49515Z" fill="#9E9E9E"/>
<path d="M13.2659 10.7144V0.747655" stroke="#9E9E9E" stroke-width="2.5"/>
</svg>
