<svg width="43" height="43" viewBox="0 0 43 43" fill="none" xmlns="http://www.w3.org/2000/svg">
<path d="M21.5 42.0625C16.0465 42.0625 10.8163 39.8961 6.96012 36.0399C3.1039 32.1837 0.9375 26.9535 0.9375 21.5C0.9375 16.0465 3.1039 10.8163 6.96012 6.96012C10.8163 3.1039 16.0465 0.9375 21.5 0.9375C26.9535 0.9375 32.1837 3.1039 36.0399 6.96012C39.8961 10.8163 42.0625 16.0465 42.0625 21.5C42.0625 26.9535 39.8961 32.1837 36.0399 36.0399C32.1837 39.8961 26.9535 42.0625 21.5 42.0625ZM21.5632 38.2819C22.1566 38.2812 22.7402 38.1301 23.2594 37.8426C23.7786 37.5552 24.2164 37.1408 24.532 36.6382C24.8476 36.1356 25.0305 35.5612 25.0638 34.9686C25.0971 34.3761 24.9797 33.7848 24.7224 33.25L28.8834 30.4227C29.5109 31.0402 30.3473 31.3998 31.2272 31.4305C32.1071 31.4612 32.9665 31.1606 33.6355 30.5883C34.3045 30.0159 34.7344 29.2134 34.8403 28.3394C34.9462 27.4653 34.7204 26.5834 34.2074 25.8678C33.6945 25.1523 32.9317 24.6552 32.07 24.4748C31.2082 24.2945 30.3101 24.444 29.5533 24.8938C28.7964 25.3436 28.2359 26.061 27.9824 26.9041C27.7289 27.7472 27.8009 28.6548 28.1843 29.4474L24.0233 32.2733C23.8868 32.1381 23.7394 32.0143 23.5827 31.9032L30.4388 18.1924C31.2766 18.4536 32.182 18.3912 32.976 18.0173C33.77 17.6435 34.3949 16.9855 34.7273 16.1732C35.0596 15.361 35.0753 14.4537 34.7712 13.6304C34.467 12.8072 33.8652 12.128 33.0846 11.727C32.304 11.3259 31.4013 11.2323 30.555 11.4644C29.7087 11.6966 28.9802 12.2378 28.5135 12.981C28.0468 13.7242 27.8758 14.6155 28.0343 15.4786C28.1928 16.3418 28.6693 17.1141 29.3696 17.6431L22.4958 31.3876C22.3674 31.3544 22.2375 31.3269 22.1066 31.3054V24.7812C22.9352 24.6543 23.6909 24.2349 24.237 23.5989C24.783 22.963 25.0832 22.1524 25.0832 21.3142C25.0832 20.476 24.783 19.6654 24.237 19.0295C23.6909 18.3935 22.9352 17.9741 22.1066 17.8472V11.6961C22.9754 11.5616 23.7622 11.1061 24.3115 10.4196C24.8607 9.73306 25.1325 8.86551 25.0731 7.98833C25.0137 7.11116 24.6274 6.28817 23.9906 5.68201C23.3538 5.07584 22.5127 4.73058 21.6337 4.71447C20.7547 4.69835 19.9016 5.01253 19.2429 5.59495C18.5843 6.17736 18.1681 6.98563 18.0766 7.86003C17.9851 8.73444 18.2249 9.61138 18.7486 10.3176C19.2723 11.0237 20.0418 11.5078 20.9052 11.6741V17.8634C20.1026 18.0159 19.3784 18.4437 18.8574 19.073C18.3364 19.7022 18.0514 20.4936 18.0514 21.3105C18.0514 22.1275 18.3364 22.9188 18.8574 23.5481C19.3784 24.1774 20.1026 24.6052 20.9052 24.7577V31.3259C20.7789 31.3486 20.6543 31.3795 20.5321 31.4185L13.6422 17.6416C14.3455 17.1134 14.8252 16.3405 14.9863 15.4758C15.1474 14.6111 14.9783 13.7174 14.5123 12.9713C14.0464 12.2252 13.3175 11.6811 12.4698 11.4464C11.622 11.2117 10.7171 11.3036 9.93385 11.7039C9.15057 12.1041 8.54593 12.7836 8.23941 13.6081C7.9329 14.4326 7.94682 15.342 8.27841 16.1568C8.61001 16.9715 9.23516 17.6322 10.0303 18.0082C10.8255 18.3843 11.7328 18.4485 12.5729 18.188L19.4628 31.9648C19.3114 32.079 19.169 32.2047 19.0369 32.3408L14.7393 29.4768C15.0959 28.676 15.1392 27.7707 14.8607 26.9395C14.5821 26.1084 14.0019 25.412 13.2348 24.9879C12.4676 24.5638 11.5693 24.4429 10.7173 24.649C9.86535 24.8551 9.12166 25.3733 8.63321 26.1012C8.14475 26.829 7.94706 27.7136 8.07919 28.5801C8.21132 29.4467 8.66366 30.2322 9.34684 30.7814C10.03 31.3306 10.8943 31.6035 11.769 31.5464C12.6437 31.4892 13.4652 31.106 14.0711 30.4726L18.3657 33.3367C18.1263 33.8712 18.0244 34.4571 18.0693 35.0411C18.1143 35.625 18.3047 36.1885 18.6231 36.6801C18.9415 37.1716 19.3779 37.5757 19.8924 37.8555C20.407 38.1353 20.9833 38.2819 21.569 38.2819H21.5632ZM35.0007 35.0007C38.1242 31.877 40.068 27.7669 40.5008 23.3707C40.9335 18.9745 39.8286 14.5642 37.3742 10.8913C34.9199 7.21848 31.2679 4.51026 27.0406 3.22815C22.8133 1.94604 18.2722 2.16935 14.1911 3.86005C10.11 5.55074 6.74136 8.60421 4.6592 12.5002C2.57703 16.3961 1.91015 20.8935 2.7722 25.226C3.63424 29.5586 5.97186 33.4582 9.38676 36.2604C12.8017 39.0626 17.0825 40.594 21.5 40.5938C26.5639 40.5934 31.4202 38.5816 35.0007 35.0007ZM21.5 3.60769C23.8506 3.60108 26.1792 4.06085 28.3509 4.9604C30.5226 5.85994 32.4943 7.18138 34.1518 8.84819L34.2414 8.93778C37.1439 11.8815 38.9375 15.7395 39.3173 19.8561C39.6972 23.9726 38.6398 28.0937 36.3249 31.5189C34.0101 34.944 30.5805 37.4619 26.6193 38.6445C22.658 39.8272 18.4095 39.6016 14.5957 38.0062C10.7819 36.4108 7.63825 33.544 5.69904 29.893C3.75984 26.242 3.14473 22.0322 3.95827 17.979C4.77181 13.9258 6.96379 10.2793 10.1617 7.65944C13.3595 5.03955 17.366 3.60785 21.5 3.60769Z" fill="#4A4E7E"/>
</svg>
