<svg width="26" height="26" viewBox="0 0 26 26" fill="none" xmlns="http://www.w3.org/2000/svg">
<path d="M12.9375 20.5C13.375 20.5 13.745 20.3488 14.0475 20.0463C14.35 19.7438 14.5008 19.3742 14.5 18.9375C14.4992 18.5008 14.3483 18.1308 14.0475 17.8275C13.7467 17.5242 13.3767 17.3733 12.9375 17.375C12.4983 17.3767 12.1288 17.5279 11.8288 17.8288C11.5288 18.1296 11.3775 18.4992 11.375 18.9375C11.3725 19.3758 11.5238 19.7458 11.8288 20.0475C12.1338 20.3492 12.5033 20.5 12.9375 20.5ZM11.8125 15.6875H14.125C14.125 15 14.2033 14.4583 14.36 14.0625C14.5167 13.6667 14.9592 13.125 15.6875 12.4375C16.2292 11.8958 16.6563 11.38 16.9688 10.89C17.2813 10.4 17.4375 9.81167 17.4375 9.12501C17.4375 7.95834 17.0104 7.06251 16.1563 6.43751C15.3021 5.81251 14.2917 5.50001 13.125 5.50001C11.9375 5.50001 10.9742 5.81251 10.235 6.43751C9.49584 7.06251 8.98 7.81251 8.6875 8.68751L10.75 9.50001C10.8542 9.12501 11.0888 8.71876 11.4538 8.28126C11.8188 7.84376 12.3758 7.62501 13.125 7.62501C13.7917 7.62501 14.2917 7.80751 14.625 8.17251C14.9583 8.53751 15.125 8.93834 15.125 9.37501C15.125 9.79167 15 10.1825 14.75 10.5475C14.5 10.9125 14.1875 11.2508 13.8125 11.5625C12.8958 12.375 12.3333 12.9896 12.125 13.4063C11.9167 13.8229 11.8125 14.5833 11.8125 15.6875ZM13 25.5C11.2708 25.5 9.64584 25.1721 8.125 24.5163C6.60417 23.8604 5.28125 22.9696 4.15625 21.8438C3.03125 20.7179 2.14084 19.395 1.485 17.875C0.829168 16.355 0.500835 14.73 0.500002 13C0.499168 11.27 0.827502 9.64501 1.485 8.12501C2.1425 6.60501 3.03292 5.28209 4.15625 4.15626C5.27958 3.03042 6.6025 2.14001 8.125 1.48501C9.6475 0.830006 11.2725 0.501673 13 0.500006C14.7275 0.49834 16.3525 0.826673 17.875 1.48501C19.3975 2.14334 20.7204 3.03376 21.8438 4.15626C22.9671 5.27876 23.8579 6.60167 24.5163 8.12501C25.1746 9.64834 25.5025 11.2733 25.5 13C25.4975 14.7267 25.1692 16.3517 24.515 17.875C23.8608 19.3983 22.9704 20.7213 21.8438 21.8438C20.7171 22.9663 19.3942 23.8571 17.875 24.5163C16.3558 25.1754 14.7308 25.5033 13 25.5Z" fill="#4C97BF"/>
</svg>
