<svg width="34" height="34" viewBox="0 0 34 34" fill="none" xmlns="http://www.w3.org/2000/svg">
<path d="M14.9 1.0733C15.4939 0.591538 16.2353 0.328613 17 0.328613C17.7647 0.328613 18.5062 0.591538 19.1 1.0733L31.8134 11.3733C32.3915 11.8414 32.8578 12.4327 33.1784 13.1039C33.4991 13.7751 33.6659 14.5094 33.6667 15.2533V30.3333C33.6667 31.2174 33.3155 32.0652 32.6904 32.6903C32.0653 33.3154 31.2174 33.6666 30.3334 33.6666H25.3334C24.4493 33.6666 23.6015 33.3154 22.9764 32.6903C22.3512 32.0652 22 31.2174 22 30.3333V22C22 21.5579 21.8244 21.134 21.5119 20.8215C21.1993 20.5089 20.7754 20.3333 20.3334 20.3333H13.6667C13.2247 20.3333 12.8008 20.5089 12.4882 20.8215C12.1756 21.134 12 21.5579 12 22V30.3333C12 31.2174 11.6489 32.0652 11.0237 32.6903C10.3986 33.3154 9.55076 33.6666 8.66671 33.6666H3.66671C2.78265 33.6666 1.93481 33.3154 1.30968 32.6903C0.684563 32.0652 0.333374 31.2174 0.333374 30.3333V15.2566C0.333227 14.5116 0.499561 13.776 0.820217 13.1036C1.14087 12.4311 1.60775 11.8388 2.18671 11.37L14.9 1.0733Z" fill="#4A4E7E"/>
</svg>
