<svg width="34" height="34" viewBox="0 0 34 34" fill="none" xmlns="http://www.w3.org/2000/svg">
<path d="M14.8999 1.0733C15.4938 0.591538 16.2352 0.328613 16.9999 0.328613C17.7646 0.328613 18.5061 0.591538 19.0999 1.0733L31.8133 11.3733C32.3913 11.8414 32.8577 12.4327 33.1783 13.1039C33.4989 13.7751 33.6657 14.5094 33.6666 15.2533V30.3333C33.6666 31.2174 33.3154 32.0652 32.6903 32.6903C32.0652 33.3154 31.2173 33.6666 30.3333 33.6666H25.3333C24.4492 33.6666 23.6014 33.3154 22.9762 32.6903C22.3511 32.0652 21.9999 31.2174 21.9999 30.3333V22C21.9999 21.5579 21.8243 21.134 21.5118 20.8215C21.1992 20.5089 20.7753 20.3333 20.3333 20.3333H13.6666C13.2246 20.3333 12.8006 20.5089 12.4881 20.8215C12.1755 21.134 11.9999 21.5579 11.9999 22V30.3333C11.9999 31.2174 11.6487 32.0652 11.0236 32.6903C10.3985 33.3154 9.55064 33.6666 8.66658 33.6666H3.66659C2.78253 33.6666 1.93468 33.3154 1.30956 32.6903C0.684441 32.0652 0.333252 31.2174 0.333252 30.3333V15.2566C0.333105 14.5116 0.499439 13.776 0.820095 13.1036C1.14075 12.4311 1.60762 11.8388 2.18659 11.37L14.8999 1.0733Z" fill="#4D4D4D" fill-opacity="0.54"/>
</svg>
