<svg width="27" height="27" viewBox="0 0 27 27" fill="none" xmlns="http://www.w3.org/2000/svg">
<path d="M13.5 3.65625C13.7238 3.65625 13.9384 3.74514 14.0966 3.90338C14.2549 4.06161 14.3438 4.27622 14.3438 4.5C14.3438 4.72378 14.2549 4.93839 14.0966 5.09662C13.9384 5.25486 13.7238 5.34375 13.5 5.34375C11.3368 5.34375 9.26225 6.20307 7.73266 7.73266C6.20307 9.26225 5.34375 11.3368 5.34375 13.5C5.34375 15.6632 6.20307 17.7377 7.73266 19.2673C9.26225 20.7969 11.3368 21.6562 13.5 21.6562C13.7238 21.6562 13.9384 21.7451 14.0966 21.9034C14.2549 22.0616 14.3438 22.2762 14.3438 22.5C14.3438 22.7238 14.2549 22.9384 14.0966 23.0966C13.9384 23.2549 13.7238 23.3438 13.5 23.3438C10.8893 23.3438 8.38548 22.3066 6.53942 20.4606C4.69336 18.6145 3.65625 16.1107 3.65625 13.5C3.65625 10.8893 4.69336 8.38548 6.53942 6.53942C8.38548 4.69336 10.8893 3.65625 13.5 3.65625Z" fill="#F81E1E"/>
<path d="M18.5287 10.7212C18.3797 10.5613 18.2986 10.3497 18.3024 10.1311C18.3063 9.91252 18.3948 9.70397 18.5494 9.54938C18.704 9.39479 18.9126 9.30623 19.1312 9.30238C19.3498 9.29852 19.5613 9.37966 19.7213 9.5287L23.0963 12.9037C23.2543 13.0619 23.343 13.2764 23.343 13.4999C23.343 13.7235 23.2543 13.938 23.0963 14.0962L19.7213 17.4712C19.644 17.5541 19.5509 17.6206 19.4474 17.6667C19.3439 17.7128 19.2321 17.7376 19.1188 17.7396C19.0055 17.7416 18.893 17.7208 18.788 17.6783C18.6829 17.6359 18.5875 17.5727 18.5073 17.4926C18.4272 17.4125 18.364 17.3171 18.3216 17.212C18.2792 17.1069 18.2583 16.9944 18.2603 16.8811C18.2623 16.7678 18.2871 16.6561 18.3332 16.5526C18.3794 16.4491 18.4459 16.3559 18.5287 16.2787L20.4638 14.3437H11.25C11.0262 14.3437 10.8116 14.2548 10.6534 14.0966C10.4951 13.9383 10.4062 13.7237 10.4062 13.4999C10.4062 13.2762 10.4951 13.0616 10.6534 12.9033C10.8116 12.7451 11.0262 12.6562 11.25 12.6562H20.4638L18.5287 10.7212Z" fill="#F81E1E"/>
</svg>
