<svg width="18" height="18" viewBox="0 0 18 18" fill="none" xmlns="http://www.w3.org/2000/svg">
<path d="M11.7109 6.72852L10.9733 6.60593C10.9555 6.71301 10.9613 6.82268 10.9901 6.92732C11.019 7.03196 11.0703 7.12906 11.1405 7.21186C11.2107 7.29466 11.2981 7.36119 11.3966 7.40681C11.4951 7.45243 11.6023 7.47604 11.7109 7.47602V6.72852ZM0.747503 6.72852V5.98102C0.549253 5.98102 0.359122 6.05977 0.218938 6.19996C0.0787544 6.34014 0 6.53027 0 6.72852H0.747503ZM2.74084 17.4427H14.063V15.9477H2.74084V17.4427ZM15.259 5.98102H11.7109V7.47602H15.259V5.98102ZM12.4484 6.85111L13.2517 2.03221L11.7767 1.78603L10.9733 6.60593L12.4484 6.85111ZM11.5315 0.000996598H11.3182V1.496H11.5305L11.5315 0.000996598ZM8.20758 1.66544L5.70095 5.42587L6.9448 6.2551L9.45142 2.49466L8.20758 1.66544ZM4.66442 5.98102H0.747503V7.47602H4.66442V5.98102ZM0 6.72852V14.7019H1.49501V6.72852H0ZM16.751 15.2401L17.947 9.26006L16.4819 8.96604L15.2859 14.9461L16.751 15.2401ZM5.70095 5.42587C5.58723 5.59659 5.43312 5.73558 5.2523 5.83243C5.07148 5.92927 4.86954 5.97997 4.66442 5.98002V7.47503C5.58135 7.47503 6.4365 7.01755 6.9448 6.2551L5.70095 5.42587ZM13.2517 2.03221C13.2933 1.78241 13.2799 1.52557 13.2126 1.28146C13.1452 1.03735 13.0256 0.810824 12.8619 0.617627C12.6982 0.42443 12.4944 0.269195 12.2646 0.162709C12.0349 0.0562232 11.7847 0.00104082 11.5315 0.000996598L11.5305 1.496C11.5666 1.49609 11.6033 1.50403 11.636 1.51928C11.6688 1.53453 11.6978 1.55672 11.7211 1.58431C11.7445 1.6119 11.7615 1.64423 11.7711 1.67906C11.7807 1.71389 11.7826 1.75039 11.7767 1.78603L13.2517 2.03221ZM15.259 7.47503C16.0464 7.47503 16.6344 8.19462 16.4809 8.96505L17.947 9.25906C18.0264 8.86149 18.0165 8.45027 17.9181 8.05697C17.8198 7.66366 17.6354 7.29708 17.3783 6.98362C17.1212 6.67017 16.7977 6.41766 16.4313 6.24429C16.0648 6.07091 15.6644 5.981 15.259 5.98102V7.47503ZM14.063 17.4427C14.6966 17.4428 15.3107 17.2225 15.8007 16.8209C16.2908 16.4193 16.6266 15.8603 16.751 15.2391L15.2859 14.9451C15.2294 15.2277 15.0767 15.482 14.8537 15.6647C14.6307 15.8473 14.3513 15.948 14.063 15.9477V17.4427ZM11.3182 0.000996598C10.7029 0.0010413 10.0972 0.151987 9.5547 0.442342C9.01224 0.732697 8.54985 1.15248 8.20857 1.66444L9.45142 2.49466C9.65628 2.18735 9.93387 1.9344 10.2595 1.76018C10.5852 1.58596 10.9488 1.49586 11.3182 1.496V0.000996598ZM2.74084 15.9477C2.05314 15.9477 1.49501 15.3896 1.49501 14.7019H0C0 15.4288 0.288766 16.1259 0.802774 16.6399C1.31678 17.154 2.01393 17.4427 2.74084 17.4427V15.9477Z" fill="#9E9E9E"/>
<path d="M4.73413 6.72852V16.6952" stroke="#9E9E9E" stroke-width="2.5"/>
</svg>
