<svg width="26" height="28" viewBox="0 0 26 28" fill="none" xmlns="http://www.w3.org/2000/svg">
<path d="M13 0.833496C10.37 0.833496 7.84764 1.87828 5.9879 3.73802C4.12817 5.59776 3.08338 8.1201 3.08338 10.7502V15.7482C3.08358 15.9679 3.03266 16.1847 2.93463 16.3814L0.50221 21.2448C0.38339 21.4824 0.327283 21.7465 0.339221 22.0119C0.351158 22.2772 0.430743 22.5352 0.570416 22.7611C0.710089 22.9871 0.905213 23.1736 1.13726 23.303C1.3693 23.4323 1.63055 23.5002 1.89621 23.5002H24.1039C24.3695 23.5002 24.6308 23.4323 24.8628 23.303C25.0949 23.1736 25.29 22.9871 25.4297 22.7611C25.5693 22.5352 25.6489 22.2772 25.6609 22.0119C25.6728 21.7465 25.6167 21.4824 25.4979 21.2448L23.0669 16.3814C22.9684 16.1848 22.9169 15.968 22.9167 15.7482V10.7502C22.9167 8.1201 21.8719 5.59776 20.0122 3.73802C18.1524 1.87828 15.6301 0.833496 13 0.833496ZM13 27.7502C12.1208 27.7506 11.263 27.4784 10.545 26.9709C9.82694 26.4635 9.28396 25.7458 8.99088 24.9168H17.0092C16.7161 25.7458 16.1731 26.4635 15.4551 26.9709C14.7371 27.4784 13.8793 27.7506 13 27.7502Z" fill="#4C97BF"/>
</svg>
