<svg width="40" height="40" viewBox="0 0 40 40" fill="none" xmlns="http://www.w3.org/2000/svg">
<path fill-rule="evenodd" clip-rule="evenodd" d="M29.2857 9.78571H10.7143C10.468 9.78571 10.2318 9.88355 10.0577 10.0577C9.88355 10.2318 9.78571 10.468 9.78571 10.7143V29.2857C9.78571 29.532 9.88355 29.7682 10.0577 29.9423C10.2318 30.1165 10.468 30.2143 10.7143 30.2143H29.2857C29.532 30.2143 29.7682 30.1165 29.9423 29.9423C30.1165 29.7682 30.2143 29.532 30.2143 29.2857V10.7143C30.2143 10.468 30.1165 10.2318 29.9423 10.0577C29.7682 9.88355 29.532 9.78571 29.2857 9.78571ZM10.7143 7C9.7292 7 8.78445 7.39133 8.08789 8.08789C7.39133 8.78445 7 9.7292 7 10.7143V29.2857C7 30.2708 7.39133 31.2155 8.08789 31.9121C8.78445 32.6087 9.7292 33 10.7143 33H29.2857C30.2708 33 31.2155 32.6087 31.9121 31.9121C32.6087 31.2155 33 30.2708 33 29.2857V10.7143C33 9.7292 32.6087 8.78445 31.9121 8.08789C31.2155 7.39133 30.2708 7 29.2857 7H10.7143ZM27.4286 25.3059L22.7857 20L18.1874 25.2557L15.3571 21.8571L12.5714 25.2V27.4286H27.4286V25.3059ZM17.2143 20C17.9531 20 18.6617 19.7065 19.1841 19.1841C19.7065 18.6617 20 17.9531 20 17.2143C20 16.4755 19.7065 15.7669 19.1841 15.2445C18.6617 14.7221 17.9531 14.4286 17.2143 14.4286C16.4755 14.4286 15.7669 14.7221 15.2445 15.2445C14.7221 15.7669 14.4286 16.4755 14.4286 17.2143C14.4286 17.9531 14.7221 18.6617 15.2445 19.1841C15.7669 19.7065 16.4755 20 17.2143 20Z" fill="#9E9E9E"/>
</svg>
