<svg width="31" height="31" viewBox="0 0 31 31" fill="none" xmlns="http://www.w3.org/2000/svg">
<path fill-rule="evenodd" clip-rule="evenodd" d="M9 7.375C9 5.65109 9.68482 3.99779 10.9038 2.77881C12.1228 1.55982 13.7761 0.875 15.5 0.875C17.2239 0.875 18.8772 1.55982 20.0962 2.77881C21.3152 3.99779 22 5.65109 22 7.375C22 9.09891 21.3152 10.7522 20.0962 11.9712C18.8772 13.1902 17.2239 13.875 15.5 13.875C13.7761 13.875 12.1228 13.1902 10.9038 11.9712C9.68482 10.7522 9 9.09891 9 7.375ZM9 17.125C6.84512 17.125 4.77849 17.981 3.25476 19.5048C1.73102 21.0285 0.875 23.0951 0.875 25.25C0.875 26.5429 1.38861 27.7829 2.30285 28.6971C3.21709 29.6114 4.45707 30.125 5.75 30.125H25.25C26.5429 30.125 27.7829 29.6114 28.6971 28.6971C29.6114 27.7829 30.125 26.5429 30.125 25.25C30.125 23.0951 29.269 21.0285 27.7452 19.5048C26.2215 17.981 24.1549 17.125 22 17.125H9Z" fill="#4D4D4D" fill-opacity="0.54"/>
</svg>
