<svg width="31" height="27" viewBox="0 0 31 27" fill="none" xmlns="http://www.w3.org/2000/svg">
<path d="M27.1667 0.375C27.9403 0.375 28.6822 0.682291 29.2291 1.22927C29.7761 1.77625 30.0834 2.51812 30.0834 3.29167V23.7083C30.0834 24.4819 29.7761 25.2237 29.2291 25.7707C28.6822 26.3177 27.9403 26.625 27.1667 26.625H3.83341C3.05987 26.625 2.318 26.3177 1.77102 25.7707C1.22404 25.2237 0.916748 24.4819 0.916748 23.7083V3.29167C0.916748 2.51812 1.22404 1.77625 1.77102 1.22927C2.318 0.682291 3.05987 0.375 3.83341 0.375H27.1667ZM22.7917 17.875H8.20841C7.82164 17.875 7.45071 18.0286 7.17722 18.3021C6.90373 18.5756 6.75008 18.9466 6.75008 19.3333C6.75008 19.7201 6.90373 20.091 7.17722 20.3645C7.45071 20.638 7.82164 20.7917 8.20841 20.7917H22.7917C23.1785 20.7917 23.5495 20.638 23.8229 20.3645C24.0964 20.091 24.2501 19.7201 24.2501 19.3333C24.2501 18.9466 24.0964 18.5756 23.8229 18.3021C23.5495 18.0286 23.1785 17.875 22.7917 17.875ZM12.5834 6.20833H9.66675C8.93091 6.2081 8.22217 6.48601 7.68262 6.98635C7.14306 7.48669 6.81256 8.17248 6.75737 8.90625L6.75008 9.125V12.0417C6.74985 12.7775 7.02776 13.4862 7.5281 14.0258C8.02844 14.5654 8.71423 14.8959 9.448 14.951L9.66675 14.9583H12.5834C13.3193 14.9586 14.028 14.6807 14.5675 14.1803C15.1071 13.68 15.4376 12.9942 15.4928 12.2604L15.5001 12.0417V9.125C15.5003 8.38916 15.2224 7.68042 14.7221 7.14087C14.2217 6.60131 13.5359 6.27081 12.8022 6.21563L12.5834 6.20833ZM22.7917 12.0417H18.4167C18.045 12.0421 17.6875 12.1844 17.4173 12.4396C17.147 12.6947 16.9843 13.0435 16.9625 13.4145C16.9408 13.7856 17.0615 14.151 17.3 14.436C17.5386 14.721 17.877 14.9042 18.2461 14.9481L18.4167 14.9583H22.7917C23.1634 14.9579 23.521 14.8156 23.7912 14.5604C24.0615 14.3053 24.2242 13.9565 24.246 13.5855C24.2677 13.2144 24.147 12.849 23.9084 12.564C23.6699 12.279 23.3315 12.0958 22.9624 12.0519L22.7917 12.0417ZM12.5834 9.125V12.0417H9.66675V9.125H12.5834ZM22.7917 6.20833H18.4167C18.03 6.20833 17.659 6.36198 17.3855 6.63547C17.1121 6.90896 16.9584 7.27989 16.9584 7.66667C16.9584 8.05344 17.1121 8.42437 17.3855 8.69786C17.659 8.97135 18.03 9.125 18.4167 9.125H22.7917C23.1785 9.125 23.5495 8.97135 23.8229 8.69786C24.0964 8.42437 24.2501 8.05344 24.2501 7.66667C24.2501 7.27989 24.0964 6.90896 23.8229 6.63547C23.5495 6.36198 23.1785 6.20833 22.7917 6.20833Z" fill="#4C97BF"/>
</svg>
