<svg width="354" height="88" viewBox="0 0 354 88" fill="none" xmlns="http://www.w3.org/2000/svg">
<rect y="37" width="330" height="10" rx="5" fill="#B1B1B1" fill-opacity="0.3"/>
<rect y="37" width="269" height="10" rx="5" fill="#B1B1B1"/>
<g clip-path="url(#clip0_114_1788)">
<path d="M155.16 1.49219C155.055 1.33594 155 1.14844 155 0.960938C155 0.429688 155.43 0 155.961 0H160.23C160.668 0 161.078 0.230469 161.301 0.605469L163.977 5.0625C162.094 5.30078 160.41 6.17969 159.156 7.48047L155.16 1.49219ZM174.836 1.49219L170.844 7.48047C169.59 6.17969 167.906 5.30078 166.023 5.0625L168.699 0.605469C168.926 0.230469 169.332 0 169.77 0H174.039C174.57 0 175 0.429688 175 0.960938C175 1.14844 174.945 1.33594 174.84 1.49219H174.836ZM158.125 13.125C158.125 11.3016 158.849 9.55295 160.139 8.26364C161.428 6.97433 163.177 6.25 165 6.25C166.823 6.25 168.572 6.97433 169.861 8.26364C171.151 9.55295 171.875 11.3016 171.875 13.125C171.875 14.9484 171.151 16.697 169.861 17.9864C168.572 19.2757 166.823 20 165 20C163.177 20 161.428 19.2757 160.139 17.9864C158.849 16.697 158.125 14.9484 158.125 13.125ZM165.328 9.41797C165.195 9.14453 164.809 9.14453 164.672 9.41797L163.797 11.1914C163.742 11.3008 163.641 11.375 163.523 11.3906L161.562 11.6758C161.262 11.7188 161.145 12.0859 161.359 12.3008L162.777 13.6836C162.863 13.7695 162.902 13.8867 162.883 14.0078L162.547 15.957C162.496 16.2539 162.809 16.4844 163.078 16.3438L164.828 15.4219C164.934 15.3672 165.062 15.3672 165.168 15.4219L166.918 16.3438C167.188 16.4844 167.5 16.2578 167.449 15.957L167.113 14.0078C167.094 13.8906 167.133 13.7695 167.219 13.6836L168.637 12.3008C168.855 12.0898 168.734 11.7227 168.434 11.6758L166.477 11.3906C166.359 11.375 166.254 11.2969 166.203 11.1914L165.328 9.41797Z" fill="#B1B1B1"/>
</g>
<path d="M60.2704 68.059H56.5854V70.248C56.7394 70.0427 56.9668 69.8703 57.2674 69.731C57.5754 69.5917 57.9018 69.522 58.2464 69.522C58.8624 69.522 59.3611 69.654 59.7424 69.918C60.1311 70.182 60.4061 70.5157 60.5674 70.919C60.7361 71.3223 60.8204 71.7477 60.8204 72.195C60.8204 72.7377 60.7141 73.2217 60.5014 73.647C60.2961 74.065 59.9844 74.395 59.5664 74.637C59.1558 74.879 58.6498 75 58.0484 75C57.2491 75 56.6074 74.802 56.1234 74.406C55.6394 74.01 55.3498 73.4857 55.2544 72.833H56.4754C56.5561 73.1777 56.7358 73.4527 57.0144 73.658C57.2931 73.856 57.6414 73.955 58.0594 73.955C58.5801 73.955 58.9688 73.7973 59.2254 73.482C59.4894 73.1667 59.6214 72.7487 59.6214 72.228C59.6214 71.7 59.4894 71.2967 59.2254 71.018C58.9614 70.732 58.5728 70.589 58.0594 70.589C57.7001 70.589 57.3958 70.6807 57.1464 70.864C56.9044 71.04 56.7284 71.282 56.6184 71.59H55.4304V66.959H60.2704V68.059ZM62.1258 70.886C62.1258 69.6173 62.3385 68.6273 62.7638 67.916C63.1965 67.1973 63.9372 66.838 64.9858 66.838C66.0345 66.838 66.7715 67.1973 67.1968 67.916C67.6295 68.6273 67.8458 69.6173 67.8458 70.886C67.8458 72.1693 67.6295 73.174 67.1968 73.9C66.7715 74.6187 66.0345 74.978 64.9858 74.978C63.9372 74.978 63.1965 74.6187 62.7638 73.9C62.3385 73.174 62.1258 72.1693 62.1258 70.886ZM66.6138 70.886C66.6138 70.292 66.5735 69.7897 66.4928 69.379C66.4195 68.9683 66.2655 68.6347 66.0308 68.378C65.7962 68.114 65.4478 67.982 64.9858 67.982C64.5238 67.982 64.1755 68.114 63.9408 68.378C63.7062 68.6347 63.5485 68.9683 63.4678 69.379C63.3945 69.7897 63.3578 70.292 63.3578 70.886C63.3578 71.502 63.3945 72.019 63.4678 72.437C63.5412 72.855 63.6952 73.1923 63.9298 73.449C64.1718 73.7057 64.5238 73.834 64.9858 73.834C65.4478 73.834 65.7962 73.7057 66.0308 73.449C66.2728 73.1923 66.4305 72.855 66.5038 72.437C66.5772 72.019 66.6138 71.502 66.6138 70.886ZM69.1727 70.886C69.1727 69.6173 69.3854 68.6273 69.8107 67.916C70.2434 67.1973 70.984 66.838 72.0327 66.838C73.0814 66.838 73.8184 67.1973 74.2437 67.916C74.6764 68.6273 74.8927 69.6173 74.8927 70.886C74.8927 72.1693 74.6764 73.174 74.2437 73.9C73.8184 74.6187 73.0814 74.978 72.0327 74.978C70.984 74.978 70.2434 74.6187 69.8107 73.9C69.3854 73.174 69.1727 72.1693 69.1727 70.886ZM73.6607 70.886C73.6607 70.292 73.6204 69.7897 73.5397 69.379C73.4664 68.9683 73.3124 68.6347 73.0777 68.378C72.843 68.114 72.4947 67.982 72.0327 67.982C71.5707 67.982 71.2224 68.114 70.9877 68.378C70.753 68.6347 70.5954 68.9683 70.5147 69.379C70.4414 69.7897 70.4047 70.292 70.4047 70.886C70.4047 71.502 70.4414 72.019 70.5147 72.437C70.588 72.855 70.742 73.1923 70.9767 73.449C71.2187 73.7057 71.5707 73.834 72.0327 73.834C72.4947 73.834 72.843 73.7057 73.0777 73.449C73.3197 73.1923 73.4774 72.855 73.5507 72.437C73.624 72.019 73.6607 71.502 73.6607 70.886ZM47.7807 79.83C47.9933 79.5513 48.283 79.3167 48.6497 79.126C49.0163 78.9353 49.4307 78.84 49.8927 78.84C50.4207 78.84 50.901 78.972 51.3337 79.236C51.7737 79.4927 52.1183 79.8557 52.3677 80.325C52.617 80.7943 52.7417 81.3333 52.7417 81.942C52.7417 82.5507 52.617 83.097 52.3677 83.581C52.1183 84.0577 51.7737 84.4317 51.3337 84.703C50.901 84.967 50.4207 85.099 49.8927 85.099C49.4307 85.099 49.02 85.0073 48.6607 84.824C48.3013 84.6333 48.008 84.3987 47.7807 84.12V87.882H46.5267V78.939H47.7807V79.83ZM51.4657 81.942C51.4657 81.524 51.3777 81.1647 51.2017 80.864C51.033 80.556 50.8057 80.325 50.5197 80.171C50.241 80.0097 49.9403 79.929 49.6177 79.929C49.3023 79.929 49.0017 80.0097 48.7157 80.171C48.437 80.3323 48.2097 80.567 48.0337 80.875C47.865 81.183 47.7807 81.546 47.7807 81.964C47.7807 82.382 47.865 82.7487 48.0337 83.064C48.2097 83.372 48.437 83.6067 48.7157 83.768C49.0017 83.9293 49.3023 84.01 49.6177 84.01C49.9403 84.01 50.241 83.9293 50.5197 83.768C50.8057 83.5993 51.033 83.3573 51.2017 83.042C51.3777 82.7267 51.4657 82.36 51.4657 81.942ZM56.6107 85.099C56.0387 85.099 55.5217 84.9707 55.0597 84.714C54.5977 84.45 54.2347 84.0833 53.9707 83.614C53.7067 83.1373 53.5747 82.5873 53.5747 81.964C53.5747 81.348 53.7104 80.8017 53.9817 80.325C54.2531 79.8483 54.6234 79.4817 55.0927 79.225C55.5621 78.9683 56.0864 78.84 56.6657 78.84C57.2451 78.84 57.7694 78.9683 58.2387 79.225C58.7081 79.4817 59.0784 79.8483 59.3497 80.325C59.6211 80.8017 59.7567 81.348 59.7567 81.964C59.7567 82.58 59.6174 83.1263 59.3387 83.603C59.0601 84.0797 58.6787 84.45 58.1947 84.714C57.7181 84.9707 57.1901 85.099 56.6107 85.099ZM56.6107 84.01C56.9334 84.01 57.2341 83.933 57.5127 83.779C57.7987 83.625 58.0297 83.394 58.2057 83.086C58.3817 82.778 58.4697 82.404 58.4697 81.964C58.4697 81.524 58.3854 81.1537 58.2167 80.853C58.0481 80.545 57.8244 80.314 57.5457 80.16C57.2671 80.006 56.9664 79.929 56.6437 79.929C56.3211 79.929 56.0204 80.006 55.7417 80.16C55.4704 80.314 55.2541 80.545 55.0927 80.853C54.9314 81.1537 54.8507 81.524 54.8507 81.964C54.8507 82.6167 55.0157 83.1227 55.3457 83.482C55.6831 83.834 56.1047 84.01 56.6107 84.01ZM64.0544 78.84C64.5311 78.84 64.9564 78.939 65.3304 79.137C65.7117 79.335 66.0087 79.6283 66.2214 80.017C66.4341 80.4057 66.5404 80.875 66.5404 81.425V85H65.2974V81.612C65.2974 81.0693 65.1617 80.655 64.8904 80.369C64.6191 80.0757 64.2487 79.929 63.7794 79.929C63.3101 79.929 62.9361 80.0757 62.6574 80.369C62.3861 80.655 62.2504 81.0693 62.2504 81.612V85H60.9964V78.939H62.2504V79.632C62.4557 79.3827 62.7161 79.1883 63.0314 79.049C63.3541 78.9097 63.6951 78.84 64.0544 78.84ZM69.6029 79.962V83.317C69.6029 83.5443 69.6543 83.7093 69.7569 83.812C69.8669 83.9073 70.0503 83.955 70.3069 83.955H71.0769V85H70.0869C69.5223 85 69.0896 84.868 68.7889 84.604C68.4883 84.34 68.3379 83.911 68.3379 83.317V79.962H67.6229V78.939H68.3379V77.432H69.6029V78.939H71.0769V79.962H69.6029ZM74.8617 85.099C74.2897 85.099 73.7727 84.9707 73.3107 84.714C72.8487 84.45 72.4857 84.0833 72.2217 83.614C71.9577 83.1373 71.8257 82.5873 71.8257 81.964C71.8257 81.348 71.9614 80.8017 72.2327 80.325C72.504 79.8483 72.8744 79.4817 73.3437 79.225C73.813 78.9683 74.3374 78.84 74.9167 78.84C75.496 78.84 76.0204 78.9683 76.4897 79.225C76.959 79.4817 77.3294 79.8483 77.6007 80.325C77.872 80.8017 78.0077 81.348 78.0077 81.964C78.0077 82.58 77.8684 83.1263 77.5897 83.603C77.311 84.0797 76.9297 84.45 76.4457 84.714C75.969 84.9707 75.441 85.099 74.8617 85.099ZM74.8617 84.01C75.1844 84.01 75.485 83.933 75.7637 83.779C76.0497 83.625 76.2807 83.394 76.4567 83.086C76.6327 82.778 76.7207 82.404 76.7207 81.964C76.7207 81.524 76.6364 81.1537 76.4677 80.853C76.299 80.545 76.0754 80.314 75.7967 80.16C75.518 80.006 75.2174 79.929 74.8947 79.929C74.572 79.929 74.2714 80.006 73.9927 80.16C73.7214 80.314 73.505 80.545 73.3437 80.853C73.1824 81.1537 73.1017 81.524 73.1017 81.964C73.1017 82.6167 73.2667 83.1227 73.5967 83.482C73.934 83.834 74.3557 84.01 74.8617 84.01ZM81.4474 85.099C80.9707 85.099 80.5417 85.0147 80.1604 84.846C79.7864 84.67 79.4894 84.4353 79.2694 84.142C79.0494 83.8413 78.932 83.5077 78.9174 83.141H80.2154C80.2374 83.3977 80.3584 83.614 80.5784 83.79C80.8057 83.9587 81.088 84.043 81.4254 84.043C81.7774 84.043 82.0487 83.977 82.2394 83.845C82.4374 83.7057 82.5364 83.5297 82.5364 83.317C82.5364 83.0897 82.4264 82.921 82.2064 82.811C81.9937 82.701 81.6527 82.58 81.1834 82.448C80.7287 82.3233 80.3584 82.2023 80.0724 82.085C79.7864 81.9677 79.537 81.788 79.3244 81.546C79.119 81.304 79.0164 80.985 79.0164 80.589C79.0164 80.2663 79.1117 79.973 79.3024 79.709C79.493 79.4377 79.7644 79.225 80.1164 79.071C80.4757 78.917 80.8864 78.84 81.3484 78.84C82.0377 78.84 82.5914 79.016 83.0094 79.368C83.4347 79.7127 83.662 80.1857 83.6914 80.787H82.4374C82.4154 80.5157 82.3054 80.2993 82.1074 80.138C81.9094 79.9767 81.6417 79.896 81.3044 79.896C80.9744 79.896 80.7214 79.9583 80.5454 80.083C80.3694 80.2077 80.2814 80.3727 80.2814 80.578C80.2814 80.7393 80.34 80.875 80.4574 80.985C80.5747 81.095 80.7177 81.183 80.8864 81.249C81.055 81.3077 81.3044 81.3847 81.6344 81.48C82.0744 81.5973 82.4337 81.7183 82.7124 81.843C82.9984 81.9603 83.244 82.1363 83.4494 82.371C83.6547 82.6057 83.761 82.9173 83.7684 83.306C83.7684 83.6507 83.673 83.9587 83.4824 84.23C83.2917 84.5013 83.0204 84.714 82.6684 84.868C82.3237 85.022 81.9167 85.099 81.4474 85.099Z" fill="#BFA183"/>
<path d="M153.002 68.125V66.981H155.29V75H154.025V68.125H153.002ZM157.013 70.886C157.013 69.6173 157.225 68.6273 157.651 67.916C158.083 67.1973 158.824 66.838 159.873 66.838C160.921 66.838 161.658 67.1973 162.084 67.916C162.516 68.6273 162.733 69.6173 162.733 70.886C162.733 72.1693 162.516 73.174 162.084 73.9C161.658 74.6187 160.921 74.978 159.873 74.978C158.824 74.978 158.083 74.6187 157.651 73.9C157.225 73.174 157.013 72.1693 157.013 70.886ZM161.501 70.886C161.501 70.292 161.46 69.7897 161.38 69.379C161.306 68.9683 161.152 68.6347 160.918 68.378C160.683 68.114 160.335 67.982 159.873 67.982C159.411 67.982 159.062 68.114 158.828 68.378C158.593 68.6347 158.435 68.9683 158.355 69.379C158.281 69.7897 158.245 70.292 158.245 70.886C158.245 71.502 158.281 72.019 158.355 72.437C158.428 72.855 158.582 73.1923 158.817 73.449C159.059 73.7057 159.411 73.834 159.873 73.834C160.335 73.834 160.683 73.7057 160.918 73.449C161.16 73.1923 161.317 72.855 161.391 72.437C161.464 72.019 161.501 71.502 161.501 70.886ZM164.059 70.886C164.059 69.6173 164.272 68.6273 164.697 67.916C165.13 67.1973 165.871 66.838 166.919 66.838C167.968 66.838 168.705 67.1973 169.13 67.916C169.563 68.6273 169.779 69.6173 169.779 70.886C169.779 72.1693 169.563 73.174 169.13 73.9C168.705 74.6187 167.968 74.978 166.919 74.978C165.871 74.978 165.13 74.6187 164.697 73.9C164.272 73.174 164.059 72.1693 164.059 70.886ZM168.547 70.886C168.547 70.292 168.507 69.7897 168.426 69.379C168.353 68.9683 168.199 68.6347 167.964 68.378C167.73 68.114 167.381 67.982 166.919 67.982C166.457 67.982 166.109 68.114 165.874 68.378C165.64 68.6347 165.482 68.9683 165.401 69.379C165.328 69.7897 165.291 70.292 165.291 70.886C165.291 71.502 165.328 72.019 165.401 72.437C165.475 72.855 165.629 73.1923 165.863 73.449C166.105 73.7057 166.457 73.834 166.919 73.834C167.381 73.834 167.73 73.7057 167.964 73.449C168.206 73.1923 168.364 72.855 168.437 72.437C168.511 72.019 168.547 71.502 168.547 70.886ZM171.106 70.886C171.106 69.6173 171.319 68.6273 171.744 67.916C172.177 67.1973 172.918 66.838 173.966 66.838C175.015 66.838 175.752 67.1973 176.177 67.916C176.61 68.6273 176.826 69.6173 176.826 70.886C176.826 72.1693 176.61 73.174 176.177 73.9C175.752 74.6187 175.015 74.978 173.966 74.978C172.918 74.978 172.177 74.6187 171.744 73.9C171.319 73.174 171.106 72.1693 171.106 70.886ZM175.594 70.886C175.594 70.292 175.554 69.7897 175.473 69.379C175.4 68.9683 175.246 68.6347 175.011 68.378C174.777 68.114 174.428 67.982 173.966 67.982C173.504 67.982 173.156 68.114 172.921 68.378C172.687 68.6347 172.529 68.9683 172.448 69.379C172.375 69.7897 172.338 70.292 172.338 70.886C172.338 71.502 172.375 72.019 172.448 72.437C172.522 72.855 172.676 73.1923 172.91 73.449C173.152 73.7057 173.504 73.834 173.966 73.834C174.428 73.834 174.777 73.7057 175.011 73.449C175.253 73.1923 175.411 72.855 175.484 72.437C175.558 72.019 175.594 71.502 175.594 70.886ZM147.781 79.83C147.993 79.5513 148.283 79.3167 148.65 79.126C149.016 78.9353 149.431 78.84 149.893 78.84C150.421 78.84 150.901 78.972 151.334 79.236C151.774 79.4927 152.118 79.8557 152.368 80.325C152.617 80.7943 152.742 81.3333 152.742 81.942C152.742 82.5507 152.617 83.097 152.368 83.581C152.118 84.0577 151.774 84.4317 151.334 84.703C150.901 84.967 150.421 85.099 149.893 85.099C149.431 85.099 149.02 85.0073 148.661 84.824C148.301 84.6333 148.008 84.3987 147.781 84.12V87.882H146.527V78.939H147.781V79.83ZM151.466 81.942C151.466 81.524 151.378 81.1647 151.202 80.864C151.033 80.556 150.806 80.325 150.52 80.171C150.241 80.0097 149.94 79.929 149.618 79.929C149.302 79.929 149.002 80.0097 148.716 80.171C148.437 80.3323 148.21 80.567 148.034 80.875C147.865 81.183 147.781 81.546 147.781 81.964C147.781 82.382 147.865 82.7487 148.034 83.064C148.21 83.372 148.437 83.6067 148.716 83.768C149.002 83.9293 149.302 84.01 149.618 84.01C149.94 84.01 150.241 83.9293 150.52 83.768C150.806 83.5993 151.033 83.3573 151.202 83.042C151.378 82.7267 151.466 82.36 151.466 81.942ZM156.611 85.099C156.039 85.099 155.522 84.9707 155.06 84.714C154.598 84.45 154.235 84.0833 153.971 83.614C153.707 83.1373 153.575 82.5873 153.575 81.964C153.575 81.348 153.71 80.8017 153.982 80.325C154.253 79.8483 154.623 79.4817 155.093 79.225C155.562 78.9683 156.086 78.84 156.666 78.84C157.245 78.84 157.769 78.9683 158.239 79.225C158.708 79.4817 159.078 79.8483 159.35 80.325C159.621 80.8017 159.757 81.348 159.757 81.964C159.757 82.58 159.617 83.1263 159.339 83.603C159.06 84.0797 158.679 84.45 158.195 84.714C157.718 84.9707 157.19 85.099 156.611 85.099ZM156.611 84.01C156.933 84.01 157.234 83.933 157.513 83.779C157.799 83.625 158.03 83.394 158.206 83.086C158.382 82.778 158.47 82.404 158.47 81.964C158.47 81.524 158.385 81.1537 158.217 80.853C158.048 80.545 157.824 80.314 157.546 80.16C157.267 80.006 156.966 79.929 156.644 79.929C156.321 79.929 156.02 80.006 155.742 80.16C155.47 80.314 155.254 80.545 155.093 80.853C154.931 81.1537 154.851 81.524 154.851 81.964C154.851 82.6167 155.016 83.1227 155.346 83.482C155.683 83.834 156.105 84.01 156.611 84.01ZM164.054 78.84C164.531 78.84 164.956 78.939 165.33 79.137C165.712 79.335 166.009 79.6283 166.221 80.017C166.434 80.4057 166.54 80.875 166.54 81.425V85H165.297V81.612C165.297 81.0693 165.162 80.655 164.89 80.369C164.619 80.0757 164.249 79.929 163.779 79.929C163.31 79.929 162.936 80.0757 162.657 80.369C162.386 80.655 162.25 81.0693 162.25 81.612V85H160.996V78.939H162.25V79.632C162.456 79.3827 162.716 79.1883 163.031 79.049C163.354 78.9097 163.695 78.84 164.054 78.84ZM169.603 79.962V83.317C169.603 83.5443 169.654 83.7093 169.757 83.812C169.867 83.9073 170.05 83.955 170.307 83.955H171.077V85H170.087C169.522 85 169.09 84.868 168.789 84.604C168.488 84.34 168.338 83.911 168.338 83.317V79.962H167.623V78.939H168.338V77.432H169.603V78.939H171.077V79.962H169.603ZM174.862 85.099C174.29 85.099 173.773 84.9707 173.311 84.714C172.849 84.45 172.486 84.0833 172.222 83.614C171.958 83.1373 171.826 82.5873 171.826 81.964C171.826 81.348 171.961 80.8017 172.233 80.325C172.504 79.8483 172.874 79.4817 173.344 79.225C173.813 78.9683 174.337 78.84 174.917 78.84C175.496 78.84 176.02 78.9683 176.49 79.225C176.959 79.4817 177.329 79.8483 177.601 80.325C177.872 80.8017 178.008 81.348 178.008 81.964C178.008 82.58 177.868 83.1263 177.59 83.603C177.311 84.0797 176.93 84.45 176.446 84.714C175.969 84.9707 175.441 85.099 174.862 85.099ZM174.862 84.01C175.184 84.01 175.485 83.933 175.764 83.779C176.05 83.625 176.281 83.394 176.457 83.086C176.633 82.778 176.721 82.404 176.721 81.964C176.721 81.524 176.636 81.1537 176.468 80.853C176.299 80.545 176.075 80.314 175.797 80.16C175.518 80.006 175.217 79.929 174.895 79.929C174.572 79.929 174.271 80.006 173.993 80.16C173.721 80.314 173.505 80.545 173.344 80.853C173.182 81.1537 173.102 81.524 173.102 81.964C173.102 82.6167 173.267 83.1227 173.597 83.482C173.934 83.834 174.356 84.01 174.862 84.01ZM181.447 85.099C180.971 85.099 180.542 85.0147 180.16 84.846C179.786 84.67 179.489 84.4353 179.269 84.142C179.049 83.8413 178.932 83.5077 178.917 83.141H180.215C180.237 83.3977 180.358 83.614 180.578 83.79C180.806 83.9587 181.088 84.043 181.425 84.043C181.777 84.043 182.049 83.977 182.239 83.845C182.437 83.7057 182.536 83.5297 182.536 83.317C182.536 83.0897 182.426 82.921 182.206 82.811C181.994 82.701 181.653 82.58 181.183 82.448C180.729 82.3233 180.358 82.2023 180.072 82.085C179.786 81.9677 179.537 81.788 179.324 81.546C179.119 81.304 179.016 80.985 179.016 80.589C179.016 80.2663 179.112 79.973 179.302 79.709C179.493 79.4377 179.764 79.225 180.116 79.071C180.476 78.917 180.886 78.84 181.348 78.84C182.038 78.84 182.591 79.016 183.009 79.368C183.435 79.7127 183.662 80.1857 183.691 80.787H182.437C182.415 80.5157 182.305 80.2993 182.107 80.138C181.909 79.9767 181.642 79.896 181.304 79.896C180.974 79.896 180.721 79.9583 180.545 80.083C180.369 80.2077 180.281 80.3727 180.281 80.578C180.281 80.7393 180.34 80.875 180.457 80.985C180.575 81.095 180.718 81.183 180.886 81.249C181.055 81.3077 181.304 81.3847 181.634 81.48C182.074 81.5973 182.434 81.7183 182.712 81.843C182.998 81.9603 183.244 82.1363 183.449 82.371C183.655 82.6057 183.761 82.9173 183.768 83.306C183.768 83.6507 183.673 83.9587 183.482 84.23C183.292 84.5013 183.02 84.714 182.668 84.868C182.324 85.022 181.917 85.099 181.447 85.099Z" fill="#B1B1B1"/>
<path d="M317.608 73.295C318.312 72.6863 318.866 72.1877 319.269 71.799C319.68 71.403 320.021 70.9923 320.292 70.567C320.564 70.1417 320.699 69.7163 320.699 69.291C320.699 68.851 320.593 68.5063 320.38 68.257C320.175 68.0077 319.849 67.883 319.401 67.883C318.969 67.883 318.631 68.0223 318.389 68.301C318.155 68.5723 318.03 68.939 318.015 69.401H316.805C316.827 68.565 317.077 67.927 317.553 67.487C318.037 67.0397 318.65 66.816 319.39 66.816C320.19 66.816 320.813 67.036 321.26 67.476C321.715 67.916 321.942 68.5027 321.942 69.236C321.942 69.764 321.807 70.2737 321.535 70.765C321.271 71.249 320.952 71.6853 320.578 72.074C320.212 72.4553 319.742 72.899 319.17 73.405L318.675 73.845H322.162V74.89H316.816V73.977L317.608 73.295ZM323.264 70.886C323.264 69.6173 323.477 68.6273 323.902 67.916C324.335 67.1973 325.075 66.838 326.124 66.838C327.173 66.838 327.91 67.1973 328.335 67.916C328.768 68.6273 328.984 69.6173 328.984 70.886C328.984 72.1693 328.768 73.174 328.335 73.9C327.91 74.6187 327.173 74.978 326.124 74.978C325.075 74.978 324.335 74.6187 323.902 73.9C323.477 73.174 323.264 72.1693 323.264 70.886ZM327.752 70.886C327.752 70.292 327.712 69.7897 327.631 69.379C327.558 68.9683 327.404 68.6347 327.169 68.378C326.934 68.114 326.586 67.982 326.124 67.982C325.662 67.982 325.314 68.114 325.079 68.378C324.844 68.6347 324.687 68.9683 324.606 69.379C324.533 69.7897 324.496 70.292 324.496 70.886C324.496 71.502 324.533 72.019 324.606 72.437C324.679 72.855 324.833 73.1923 325.068 73.449C325.31 73.7057 325.662 73.834 326.124 73.834C326.586 73.834 326.934 73.7057 327.169 73.449C327.411 73.1923 327.569 72.855 327.642 72.437C327.715 72.019 327.752 71.502 327.752 70.886ZM330.311 70.886C330.311 69.6173 330.524 68.6273 330.949 67.916C331.382 67.1973 332.122 66.838 333.171 66.838C334.22 66.838 334.957 67.1973 335.382 67.916C335.815 68.6273 336.031 69.6173 336.031 70.886C336.031 72.1693 335.815 73.174 335.382 73.9C334.957 74.6187 334.22 74.978 333.171 74.978C332.122 74.978 331.382 74.6187 330.949 73.9C330.524 73.174 330.311 72.1693 330.311 70.886ZM334.799 70.886C334.799 70.292 334.759 69.7897 334.678 69.379C334.605 68.9683 334.451 68.6347 334.216 68.378C333.981 68.114 333.633 67.982 333.171 67.982C332.709 67.982 332.361 68.114 332.126 68.378C331.891 68.6347 331.734 68.9683 331.653 69.379C331.58 69.7897 331.543 70.292 331.543 70.886C331.543 71.502 331.58 72.019 331.653 72.437C331.726 72.855 331.88 73.1923 332.115 73.449C332.357 73.7057 332.709 73.834 333.171 73.834C333.633 73.834 333.981 73.7057 334.216 73.449C334.458 73.1923 334.616 72.855 334.689 72.437C334.762 72.019 334.799 71.502 334.799 70.886ZM337.358 70.886C337.358 69.6173 337.57 68.6273 337.996 67.916C338.428 67.1973 339.169 66.838 340.218 66.838C341.266 66.838 342.003 67.1973 342.429 67.916C342.861 68.6273 343.078 69.6173 343.078 70.886C343.078 72.1693 342.861 73.174 342.429 73.9C342.003 74.6187 341.266 74.978 340.218 74.978C339.169 74.978 338.428 74.6187 337.996 73.9C337.57 73.174 337.358 72.1693 337.358 70.886ZM341.846 70.886C341.846 70.292 341.805 69.7897 341.725 69.379C341.651 68.9683 341.497 68.6347 341.263 68.378C341.028 68.114 340.68 67.982 340.218 67.982C339.756 67.982 339.407 68.114 339.173 68.378C338.938 68.6347 338.78 68.9683 338.7 69.379C338.626 69.7897 338.59 70.292 338.59 70.886C338.59 71.502 338.626 72.019 338.7 72.437C338.773 72.855 338.927 73.1923 339.162 73.449C339.404 73.7057 339.756 73.834 340.218 73.834C340.68 73.834 341.028 73.7057 341.263 73.449C341.505 73.1923 341.662 72.855 341.736 72.437C341.809 72.019 341.846 71.502 341.846 70.886ZM312.781 79.83C312.993 79.5513 313.283 79.3167 313.65 79.126C314.016 78.9353 314.431 78.84 314.893 78.84C315.421 78.84 315.901 78.972 316.334 79.236C316.774 79.4927 317.118 79.8557 317.368 80.325C317.617 80.7943 317.742 81.3333 317.742 81.942C317.742 82.5507 317.617 83.097 317.368 83.581C317.118 84.0577 316.774 84.4317 316.334 84.703C315.901 84.967 315.421 85.099 314.893 85.099C314.431 85.099 314.02 85.0073 313.661 84.824C313.301 84.6333 313.008 84.3987 312.781 84.12V87.882H311.527V78.939H312.781V79.83ZM316.466 81.942C316.466 81.524 316.378 81.1647 316.202 80.864C316.033 80.556 315.806 80.325 315.52 80.171C315.241 80.0097 314.94 79.929 314.618 79.929C314.302 79.929 314.002 80.0097 313.716 80.171C313.437 80.3323 313.21 80.567 313.034 80.875C312.865 81.183 312.781 81.546 312.781 81.964C312.781 82.382 312.865 82.7487 313.034 83.064C313.21 83.372 313.437 83.6067 313.716 83.768C314.002 83.9293 314.302 84.01 314.618 84.01C314.94 84.01 315.241 83.9293 315.52 83.768C315.806 83.5993 316.033 83.3573 316.202 83.042C316.378 82.7267 316.466 82.36 316.466 81.942ZM321.611 85.099C321.039 85.099 320.522 84.9707 320.06 84.714C319.598 84.45 319.235 84.0833 318.971 83.614C318.707 83.1373 318.575 82.5873 318.575 81.964C318.575 81.348 318.71 80.8017 318.982 80.325C319.253 79.8483 319.623 79.4817 320.093 79.225C320.562 78.9683 321.086 78.84 321.666 78.84C322.245 78.84 322.769 78.9683 323.239 79.225C323.708 79.4817 324.078 79.8483 324.35 80.325C324.621 80.8017 324.757 81.348 324.757 81.964C324.757 82.58 324.617 83.1263 324.339 83.603C324.06 84.0797 323.679 84.45 323.195 84.714C322.718 84.9707 322.19 85.099 321.611 85.099ZM321.611 84.01C321.933 84.01 322.234 83.933 322.513 83.779C322.799 83.625 323.03 83.394 323.206 83.086C323.382 82.778 323.47 82.404 323.47 81.964C323.47 81.524 323.385 81.1537 323.217 80.853C323.048 80.545 322.824 80.314 322.546 80.16C322.267 80.006 321.966 79.929 321.644 79.929C321.321 79.929 321.02 80.006 320.742 80.16C320.47 80.314 320.254 80.545 320.093 80.853C319.931 81.1537 319.851 81.524 319.851 81.964C319.851 82.6167 320.016 83.1227 320.346 83.482C320.683 83.834 321.105 84.01 321.611 84.01ZM329.054 78.84C329.531 78.84 329.956 78.939 330.33 79.137C330.712 79.335 331.009 79.6283 331.221 80.017C331.434 80.4057 331.54 80.875 331.54 81.425V85H330.297V81.612C330.297 81.0693 330.162 80.655 329.89 80.369C329.619 80.0757 329.249 79.929 328.779 79.929C328.31 79.929 327.936 80.0757 327.657 80.369C327.386 80.655 327.25 81.0693 327.25 81.612V85H325.996V78.939H327.25V79.632C327.456 79.3827 327.716 79.1883 328.031 79.049C328.354 78.9097 328.695 78.84 329.054 78.84ZM334.603 79.962V83.317C334.603 83.5443 334.654 83.7093 334.757 83.812C334.867 83.9073 335.05 83.955 335.307 83.955H336.077V85H335.087C334.522 85 334.09 84.868 333.789 84.604C333.488 84.34 333.338 83.911 333.338 83.317V79.962H332.623V78.939H333.338V77.432H334.603V78.939H336.077V79.962H334.603ZM339.862 85.099C339.29 85.099 338.773 84.9707 338.311 84.714C337.849 84.45 337.486 84.0833 337.222 83.614C336.958 83.1373 336.826 82.5873 336.826 81.964C336.826 81.348 336.961 80.8017 337.233 80.325C337.504 79.8483 337.874 79.4817 338.344 79.225C338.813 78.9683 339.337 78.84 339.917 78.84C340.496 78.84 341.02 78.9683 341.49 79.225C341.959 79.4817 342.329 79.8483 342.601 80.325C342.872 80.8017 343.008 81.348 343.008 81.964C343.008 82.58 342.868 83.1263 342.59 83.603C342.311 84.0797 341.93 84.45 341.446 84.714C340.969 84.9707 340.441 85.099 339.862 85.099ZM339.862 84.01C340.184 84.01 340.485 83.933 340.764 83.779C341.05 83.625 341.281 83.394 341.457 83.086C341.633 82.778 341.721 82.404 341.721 81.964C341.721 81.524 341.636 81.1537 341.468 80.853C341.299 80.545 341.075 80.314 340.797 80.16C340.518 80.006 340.217 79.929 339.895 79.929C339.572 79.929 339.271 80.006 338.993 80.16C338.721 80.314 338.505 80.545 338.344 80.853C338.182 81.1537 338.102 81.524 338.102 81.964C338.102 82.6167 338.267 83.1227 338.597 83.482C338.934 83.834 339.356 84.01 339.862 84.01ZM346.447 85.099C345.971 85.099 345.542 85.0147 345.16 84.846C344.786 84.67 344.489 84.4353 344.269 84.142C344.049 83.8413 343.932 83.5077 343.917 83.141H345.215C345.237 83.3977 345.358 83.614 345.578 83.79C345.806 83.9587 346.088 84.043 346.425 84.043C346.777 84.043 347.049 83.977 347.239 83.845C347.437 83.7057 347.536 83.5297 347.536 83.317C347.536 83.0897 347.426 82.921 347.206 82.811C346.994 82.701 346.653 82.58 346.183 82.448C345.729 82.3233 345.358 82.2023 345.072 82.085C344.786 81.9677 344.537 81.788 344.324 81.546C344.119 81.304 344.016 80.985 344.016 80.589C344.016 80.2663 344.112 79.973 344.302 79.709C344.493 79.4377 344.764 79.225 345.116 79.071C345.476 78.917 345.886 78.84 346.348 78.84C347.038 78.84 347.591 79.016 348.009 79.368C348.435 79.7127 348.662 80.1857 348.691 80.787H347.437C347.415 80.5157 347.305 80.2993 347.107 80.138C346.909 79.9767 346.642 79.896 346.304 79.896C345.974 79.896 345.721 79.9583 345.545 80.083C345.369 80.2077 345.281 80.3727 345.281 80.578C345.281 80.7393 345.34 80.875 345.457 80.985C345.575 81.095 345.718 81.183 345.886 81.249C346.055 81.3077 346.304 81.3847 346.634 81.48C347.074 81.5973 347.434 81.7183 347.712 81.843C347.998 81.9603 348.244 82.1363 348.449 82.371C348.655 82.6057 348.761 82.9173 348.768 83.306C348.768 83.6507 348.673 83.9587 348.482 84.23C348.292 84.5013 348.02 84.714 347.668 84.868C347.324 85.022 346.917 85.099 346.447 85.099Z" fill="#C9BD7A"/>
<line x1="66" y1="29" x2="66" y2="59" stroke="#BA9C7E" stroke-width="2"/>
<line x1="166" y1="29" x2="166" y2="59" stroke="#B1B1B1" stroke-width="2"/>
<line x1="331" y1="29" x2="331" y2="59" stroke="#C9BD7A" stroke-width="2"/>
<g clip-path="url(#clip1_114_1788)">
<path d="M320.576 1.21465L320.576 1.21465L320.575 1.21245C320.527 1.1425 320.5 1.05327 320.5 0.960938C320.5 0.70583 320.706 0.5 320.961 0.5H325.23C325.494 0.5 325.74 0.639748 325.871 0.860738L325.871 0.860741L325.872 0.862827L328.172 4.69336C326.682 5.01567 325.334 5.7213 324.24 6.70501L320.576 1.21465ZM339.452 1.16606L339.42 1.21484L335.76 6.70483C334.666 5.72121 333.318 5.01565 331.828 4.69336L334.127 0.864027C334.127 0.863851 334.127 0.863675 334.127 0.863499C334.264 0.637694 334.508 0.5 334.77 0.5H339.039C339.294 0.5 339.5 0.70583 339.5 0.960938C339.5 1.03391 339.483 1.10495 339.452 1.16606ZM329.225 9.19436L329.223 9.19674L328.38 10.9062L326.492 11.1808L326.562 11.6758L326.491 11.181L326.491 11.1809C325.769 11.2845 325.51 12.1583 326.006 12.6543L326.006 12.6544L326.01 12.6587L327.378 13.9926L327.054 15.8721L327.054 15.8727C326.934 16.5745 327.671 17.1203 328.309 16.787L328.311 16.7861L329.998 15.8975L331.685 16.7861L331.687 16.787C332.322 17.1187 333.062 16.582 332.942 15.8738L332.942 15.8721L332.618 13.9926L333.984 12.6607C333.984 12.6603 333.985 12.6599 333.985 12.6596C334.51 12.1517 334.205 11.29 333.511 11.1817L333.511 11.1817L333.506 11.181L331.62 10.9062L330.778 9.19952C330.778 9.19894 330.777 9.19835 330.777 9.19777C330.458 8.54531 329.543 8.55836 329.225 9.19436ZM331.654 10.9745L331.652 10.9718L331.654 10.9745L331.654 10.9745ZM323.625 13.125C323.625 11.4342 324.297 9.81274 325.492 8.6172C326.688 7.42165 328.309 6.75 330 6.75C331.691 6.75 333.312 7.42165 334.508 8.6172C335.703 9.81274 336.375 11.4342 336.375 13.125C336.375 14.8158 335.703 16.4373 334.508 17.6328C333.312 18.8284 331.691 19.5 330 19.5C328.309 19.5 326.688 18.8284 325.492 17.6328C324.297 16.4373 323.625 14.8158 323.625 13.125Z" fill="#C9BD7A" fill-opacity="0.1" stroke="#C9BD7A"/>
</g>
<g clip-path="url(#clip2_114_1788)">
<path d="M55.1602 1.49219C55.0547 1.33594 55 1.14844 55 0.960938C55 0.429688 55.4297 0 55.9609 0H60.2305C60.668 0 61.0781 0.230469 61.3008 0.605469L63.9766 5.0625C62.0938 5.30078 60.4102 6.17969 59.1562 7.48047L55.1602 1.49219ZM74.8359 1.49219L70.8438 7.48047C69.5898 6.17969 67.9063 5.30078 66.0234 5.0625L68.6992 0.605469C68.9258 0.230469 69.332 0 69.7695 0H74.0391C74.5703 0 75 0.429688 75 0.960938C75 1.14844 74.9453 1.33594 74.8398 1.49219H74.8359ZM58.125 13.125C58.125 11.3016 58.8493 9.55295 60.1386 8.26364C61.428 6.97433 63.1766 6.25 65 6.25C66.8234 6.25 68.572 6.97433 69.8614 8.26364C71.1507 9.55295 71.875 11.3016 71.875 13.125C71.875 14.9484 71.1507 16.697 69.8614 17.9864C68.572 19.2757 66.8234 20 65 20C63.1766 20 61.428 19.2757 60.1386 17.9864C58.8493 16.697 58.125 14.9484 58.125 13.125ZM65.3281 9.41797C65.1953 9.14453 64.8086 9.14453 64.6719 9.41797L63.7969 11.1914C63.7422 11.3008 63.6406 11.375 63.5234 11.3906L61.5625 11.6758C61.2617 11.7188 61.1445 12.0859 61.3594 12.3008L62.7773 13.6836C62.8633 13.7695 62.9023 13.8867 62.8828 14.0078L62.5469 15.957C62.4961 16.2539 62.8086 16.4844 63.0781 16.3438L64.8281 15.4219C64.9336 15.3672 65.0625 15.3672 65.168 15.4219L66.918 16.3438C67.1875 16.4844 67.5 16.2578 67.4492 15.957L67.1133 14.0078C67.0938 13.8906 67.1328 13.7695 67.2188 13.6836L68.6367 12.3008C68.8555 12.0898 68.7344 11.7227 68.4336 11.6758L66.4766 11.3906C66.3594 11.375 66.2539 11.2969 66.2031 11.1914L65.3281 9.41797Z" fill="#804408" fill-opacity="0.5"/>
</g>
<defs>
<clipPath id="clip0_114_1788">
<rect width="20" height="20" fill="white" transform="translate(155)"/>
</clipPath>
<clipPath id="clip1_114_1788">
<rect width="20" height="20" fill="white" transform="translate(320)"/>
</clipPath>
<clipPath id="clip2_114_1788">
<rect width="20" height="20" fill="white" transform="translate(55)"/>
</clipPath>
</defs>
</svg>
