<svg width="18" height="17" viewBox="0 0 18 17" fill="none" xmlns="http://www.w3.org/2000/svg">
<path d="M17.7365 7.46359L10.5364 0.263511C10.4105 0.137681 10.2502 0.0519945 10.0756 0.0172833C9.90108 -0.0174279 9.72015 0.00039506 9.55571 0.0684988C9.39128 0.136603 9.25073 0.251929 9.15184 0.3999C9.05294 0.54787 9.00013 0.721841 9.0001 0.899818V4.09035C6.54153 4.31787 4.25635 5.45464 2.59175 7.27821C0.927148 9.10178 0.00294459 11.4809 0 13.95V15.3C0.000142072 15.4868 0.0584193 15.6689 0.166748 15.8212C0.275078 15.9734 0.428089 16.0881 0.604559 16.1494C0.78103 16.2107 0.972212 16.2156 1.15159 16.1634C1.33097 16.1112 1.48964 16.0044 1.60562 15.858C2.48749 14.8096 3.56938 13.9474 4.78814 13.3217C6.0069 12.696 7.33809 12.3194 8.70399 12.2138C8.74899 12.2084 8.8615 12.1994 9.0001 12.1904V15.3C9.00013 15.4779 9.05294 15.6519 9.15184 15.7999C9.25073 15.9479 9.39128 16.0632 9.55571 16.1313C9.72015 16.1994 9.90108 16.2172 10.0756 16.1825C10.2502 16.1478 10.4105 16.0621 10.5364 15.9363L17.7365 8.7362C17.9052 8.56742 18 8.33854 18 8.09989C18 7.86124 17.9052 7.63236 17.7365 7.46359ZM10.8001 13.1273V11.2499C10.8001 11.0112 10.7053 10.7823 10.5365 10.6135C10.3677 10.4447 10.1388 10.3499 9.90011 10.3499C9.6706 10.3499 8.73369 10.3949 8.49429 10.4264C6.06858 10.6497 3.75959 11.5713 1.84682 13.0796C2.06394 11.0946 3.00562 9.25942 4.49155 7.92544C5.97748 6.59145 7.90324 5.85243 9.90011 5.84987C10.1388 5.84987 10.3677 5.75505 10.5365 5.58626C10.7053 5.41748 10.8001 5.18856 10.8001 4.94986V3.07244L15.8276 8.09989L10.8001 13.1273Z" fill="#9E9E9E"/>
</svg>
