<svg width="20" height="20" viewBox="0 0 20 20" fill="none" xmlns="http://www.w3.org/2000/svg">
<path d="M0.375 10.375C0.375 7.82229 1.38906 5.37414 3.1941 3.5691C4.99914 1.76406 7.44729 0.75 10 0.75C12.5527 0.75 15.0009 1.76406 16.8059 3.5691C18.6109 5.37414 19.625 7.82229 19.625 10.375C19.625 12.9277 18.6109 15.3759 16.8059 17.1809C15.0009 18.9859 12.5527 20 10 20C7.44729 20 4.99914 18.9859 3.1941 17.1809C1.38906 15.3759 0.375 12.9277 0.375 10.375ZM10.4594 5.18516C10.2734 4.80234 9.73203 4.80234 9.54063 5.18516L8.31562 7.66797C8.23906 7.82109 8.09687 7.925 7.93281 7.94688L5.1875 8.34609C4.76641 8.40625 4.60234 8.92031 4.90313 9.22109L6.88828 11.157C7.00859 11.2773 7.06328 11.4414 7.03594 11.6109L6.56563 14.3398C6.49453 14.7555 6.93203 15.0781 7.30937 14.8812L9.75938 13.5906C9.90703 13.5141 10.0875 13.5141 10.2352 13.5906L12.6852 14.8812C13.0625 15.0781 13.5 14.7609 13.4289 14.3398L12.9586 11.6109C12.9313 11.4469 12.9859 11.2773 13.1062 11.157L15.0914 9.22109C15.3977 8.92578 15.2281 8.41172 14.807 8.34609L12.0672 7.94688C11.9031 7.925 11.7555 7.81562 11.6844 7.66797L10.4594 5.18516Z" fill="#B1B1B1"/>
</svg>
