<svg width="30" height="32" viewBox="0 0 30 32" fill="none" xmlns="http://www.w3.org/2000/svg">
<path d="M8.3885 0.71725C8.6335 0.6875 8.90475 0.6875 9.21975 0.6875H20.7803C21.0953 0.6875 21.3665 0.6875 21.6115 0.71725C22.4812 0.825449 23.2899 1.2207 23.9096 1.84039C24.5293 2.46009 24.9246 3.26882 25.0327 4.1385L25.038 4.1875H26.4485C26.8195 4.184 27.6333 4.177 28.3053 4.62675C29.175 5.206 29.4375 6.20175 29.4375 7.25C29.4375 12.0205 26.8947 15.2055 23.6485 16.9748C21.8372 20.2717 18.4912 22.5625 15 22.5625C12.3418 22.5625 9.82 21.124 8.00525 19.1343C7.40225 18.4764 6.87294 17.7546 6.42675 16.9818C3.18225 15.2212 0.5625 12.0398 0.5625 7.25C0.5625 6.2 0.825 5.206 1.693 4.62675C2.36675 4.177 3.1805 4.184 3.5515 4.1875H4.962L4.96725 4.1385C5.07545 3.26882 5.47069 2.46009 6.09039 1.84039C6.71009 1.2207 7.51882 0.825449 8.3885 0.71725ZM26.781 6.82125C26.6458 6.8131 26.5104 6.81018 26.375 6.8125H25.0572L25.0013 12.57C26.1178 11.226 26.8125 9.4725 26.8125 7.25C26.8125 7.0435 26.7968 6.907 26.781 6.82125ZM3.1875 7.25C3.1875 9.41475 3.8665 11.135 4.955 12.4685C4.8395 11.163 4.871 9.8365 4.9025 8.517C4.91883 7.94533 4.92875 7.37717 4.93225 6.8125H3.625C3.43425 6.8125 3.3135 6.8125 3.22075 6.82125C3.19615 6.9628 3.18502 7.10635 3.1875 7.25ZM15.4025 6.47125C15.3689 6.39233 15.3128 6.32503 15.2412 6.27773C15.1697 6.23043 15.0858 6.20521 15 6.20521C14.9142 6.20521 14.8303 6.23043 14.7588 6.27773C14.6872 6.32503 14.6311 6.39233 14.5975 6.47125L13.7138 8.59225C13.6829 8.66627 13.6323 8.7304 13.5675 8.77762C13.5027 8.82484 13.4262 8.85334 13.3463 8.86L11.0555 9.04375C10.9693 9.05057 10.8871 9.08277 10.8192 9.13627C10.7513 9.18978 10.7008 9.26219 10.6741 9.34438C10.6473 9.42657 10.6455 9.51484 10.6688 9.59807C10.6922 9.68129 10.7396 9.75573 10.8052 9.812L12.55 11.3065C12.611 11.359 12.6563 11.4272 12.681 11.5038C12.7057 11.5804 12.7088 11.6623 12.69 11.7405L12.158 13.9735C12.1375 14.0578 12.1425 14.1462 12.1724 14.2277C12.2022 14.3091 12.2556 14.3798 12.3258 14.4308C12.3959 14.4818 12.4796 14.5108 12.5663 14.5141C12.653 14.5175 12.7387 14.495 12.8125 14.4495L14.7725 13.2525C14.841 13.2108 14.9198 13.1887 15 13.1887C15.0802 13.1887 15.159 13.2108 15.2275 13.2525L17.1875 14.4495C17.2613 14.495 17.347 14.5175 17.4337 14.5141C17.5204 14.5108 17.6041 14.4818 17.6742 14.4308C17.7444 14.3798 17.7978 14.3091 17.8276 14.2277C17.8575 14.1462 17.8625 14.0578 17.842 13.9735L17.3083 11.7405C17.2894 11.6623 17.2925 11.5804 17.3172 11.5038C17.3419 11.4272 17.3873 11.359 17.4482 11.3065L19.1947 9.812C19.261 9.75587 19.309 9.6813 19.3327 9.59779C19.3564 9.51429 19.3548 9.42561 19.3279 9.34305C19.3011 9.2605 19.2503 9.18779 19.182 9.13418C19.1138 9.08057 19.0311 9.04848 18.9445 9.042L16.6555 8.86C16.5753 8.85365 16.4984 8.82529 16.4332 8.77805C16.3681 8.73081 16.3172 8.66652 16.2862 8.59225L15.4025 6.47125ZM15 23.4375C15.3481 23.4375 15.6819 23.5758 15.9281 23.8219C16.1742 24.0681 16.3125 24.4019 16.3125 24.75V28.6875H22C22.3481 28.6875 22.6819 28.8258 22.9281 29.0719C23.1742 29.3181 23.3125 29.6519 23.3125 30C23.3125 30.3481 23.1742 30.6819 22.9281 30.9281C22.6819 31.1742 22.3481 31.3125 22 31.3125H8C7.6519 31.3125 7.31806 31.1742 7.07192 30.9281C6.82578 30.6819 6.6875 30.3481 6.6875 30C6.6875 29.6519 6.82578 29.3181 7.07192 29.0719C7.31806 28.8258 7.6519 28.6875 8 28.6875H13.6875V24.75C13.6875 24.4019 13.8258 24.0681 14.0719 23.8219C14.3181 23.5758 14.6519 23.4375 15 23.4375Z" fill="#4D4D4D" fill-opacity="0.54"/>
</svg>
